<svg xmlns="http://www.w3.org/2000/svg">
  <symbol viewBox="0 0 24 24" id="telegram">
    <path d="M22.4391 4.62225L19.2704 19.566C19.0311 20.6205 18.4079 20.883 17.5221 20.3865L12.6936 16.8285L10.3641 19.0695C10.1061 19.3275 9.8909 19.5428 9.39365 19.5428L9.7409 14.6258L18.6891 6.54C19.0784 6.1935 18.6044 6.00075 18.0846 6.348L7.02215 13.314L2.25965 11.823C1.2239 11.4998 1.20515 10.7873 2.47565 10.29L21.1034 3.11325C21.9659 2.79 22.7204 3.30525 22.4391 4.623V4.62225Z"/>
  </symbol>
  <symbol viewBox="0 0 24 24" id="vk">
    <g clip-path="url(#clip0_29705_1038)">
      <path fill-rule="evenodd" clip-rule="evenodd" d="M23.45 5.948C23.616 5.402 23.45 5 22.655 5H20.03C19.362 5 19.054 5.347 18.887 5.73C18.887 5.73 17.552 8.926 15.661 11.002C15.049 11.604 14.771 11.795 14.437 11.795C14.27 11.795 14.019 11.604 14.019 11.057V5.948C14.019 5.292 13.835 5 13.279 5H9.151C8.734 5 8.483 5.304 8.483 5.593C8.483 6.214 9.429 6.358 9.526 8.106V11.904C9.526 12.737 9.373 12.888 9.039 12.888C8.149 12.888 5.984 9.677 4.699 6.003C4.45 5.288 4.198 5 3.527 5H0.9C0.15 5 0 5.347 0 5.73C0 6.412 0.89 9.8 4.145 14.281C6.315 17.341 9.37 19 12.153 19C13.822 19 14.028 18.632 14.028 17.997V15.684C14.028 14.947 14.186 14.8 14.715 14.8C15.105 14.8 15.772 14.992 17.33 16.467C19.11 18.216 19.403 19 20.405 19H23.03C23.78 19 24.156 18.632 23.94 17.904C23.702 17.18 22.852 16.129 21.725 14.882C21.113 14.172 20.195 13.407 19.916 13.024C19.527 12.533 19.638 12.314 19.916 11.877C19.916 11.877 23.116 7.451 23.449 5.948H23.45Z"/>
    </g>
    <defs>
      <clipPath id="clip0_29705_1038">
        <rect width="24" height="24" fill="white"/>
      </clipPath>
    </defs>
  </symbol>
  <symbol viewBox="0 0 24 24" id="youtube">
    <path d="M19.1813 5H4.81331C3.30618 5 2 6.3 2 7.8V16.1C2 17.7 3.30618 19 4.81331 19H19.1813C20.7889 19 21.9946 17.7 21.9946 16.2V7.8C22.095 6.3 20.7889 5 19.1813 5ZM9.03326 15.4V8.6L15.8656 12L9.03326 15.4Z"/>
  </symbol>
  <symbol viewBox="0 0 27 35" id="htmlacademy">
    <path d="M13.6 0H13.5L0 1.4V26.1L13.5 34.1L26.9 26.1V1.4L13.6 0ZM25 12.1L13.5 5.3V5.2H13.4L13.3 5.1V5.2L1.9 12.1V3.1L13.4 1.9L25 3.1V12.1ZM13.4 6.8L24.9 13.5L20.4 16.1L13.3 11.9V13.3L19.2 16.8L18.3 17.3L13.3 14.3V15.7L17.1 18L16.3 18.5L13.3 16.7V18.1L15.2 19.2L13.4 20.3L2 13.6L13.4 6.8ZM1.9 15.1L13.3 21.9V22.9L5.4 18.2V19.6L13.4 24.4V25.5L5.4 20.8V22.2L13.4 27L21.5 22.1V16.9L24.9 14.9V24.9L13.4 31.8L1.9 25V15.1Z"/>
  </symbol>
  <symbol viewBox="0 0 23 21" id="like-icon">
    <path d="m12.964 3.78-.628 3.045-.627 2.625h9.096v2.205L17.773 18.9h-9.41V8.4l4.6-4.62ZM2.09 10.5v8.4-8.4ZM13.8 0 6.9 6.93c-.418.315-.627.84-.627 1.47v10.5c0 1.155.94 2.1 2.09 2.1h9.41c.836 0 1.568-.525 1.881-1.26l3.137-7.455c.104-.21.104-.525.104-.735v-2.1H23c0-1.155-.94-2.1-2.09-2.1h-6.587l1.045-4.83v-.315c0-.42-.209-.84-.418-1.155L13.8 0ZM4.182 8.4H0V21h4.182V8.4Z"/>
  </symbol>
  <symbol viewBox="0 0 40 40" id="food">
    <path d="M37.743 26.3H2.257C.997 26.3 0 27.314 0 28.478v1.773c0 1.165.997 2.128 2.257 2.128h.525v.506c0 2.786 2.362 5.015 5.197 5.015h24.042c2.887 0 5.197-2.28 5.197-5.015v-.506h.525c1.207 0 2.257-.963 2.257-2.178v-1.773c0-1.114-.997-2.128-2.257-2.128Zm-2.047 6.585c0 1.925-1.628 3.495-3.622 3.495H7.927c-1.995 0-3.623-1.57-3.623-3.495v-.506h31.392v.506Zm2.73-2.684c0 .354-.316.658-.683.658H2.257c-.367 0-.682-.304-.682-.658v-1.773c0-.304.315-.608.682-.608h35.538c.368 0 .683.304.683.659V30.2h-.053ZM8.504 22.197l2.835 2.026 2.887-2.026 2.887 2.026L20 22.197l2.835 2.026 2.887-2.026 2.887 2.026 2.887-2.026 2.887 2.026 3.307-2.38-.892-1.216-2.415 1.672-2.887-2.026-2.887 2.026-2.887-2.026-2.887 2.026L20 20.273l-2.887 2.026-2.887-2.026-2.887 2.026-2.835-2.026-2.887 2.026-2.415-1.672-.945 1.216 3.36 2.38 2.887-2.026ZM37.218 18.753c0-.304.052-1.317 0-1.52C36.85 9.332 29.29 3 20 3S3.097 9.332 2.73 17.233v1.52h34.488ZM20 4.52c8.399 0 15.328 5.673 15.643 12.713H4.304C4.672 10.194 11.601 4.52 20 4.52Z" fill="#81B3D2"/>
    <path d="M20 11.611c.58 0 1.05-.454 1.05-1.013 0-.56-.47-1.013-1.05-1.013-.58 0-1.05.454-1.05 1.013 0 .56.47 1.013 1.05 1.013ZM15.8 9.129c.58 0 1.05-.454 1.05-1.013 0-.56-.47-1.013-1.05-1.013-.58 0-1.05.453-1.05 1.013 0 .56.47 1.013 1.05 1.013ZM24.2 9.129c.58 0 1.05-.454 1.05-1.013 0-.56-.47-1.013-1.05-1.013-.58 0-1.05.453-1.05 1.013 0 .56.47 1.013 1.05 1.013Z" fill="#81B3D2"/>
  </symbol>
  <symbol viewBox="0 0 40 40" id="gift">
    <path d="M34.578 12.206H22.184c6.908-3.444 7.467-5.622 7.213-6.838-.559-1.975-2.845-3.495-4.978-2.685-2.794 1.064-3.556 5.217-4.317 8.206-.965-3.04-1.88-6.889-4.064-8.864-.61-.557-1.524-1.114-2.895-1.013-2.032.203-4.927 2.684-3.708 5.47 1.117 2.685 4.825 4.407 7.314 5.775H5.422c-.812 0-1.422.658-1.422 1.418v5.672c0 .811.66 1.419 1.422 1.419h.153V39h28.952V20.766h.05c.814 0 1.423-.659 1.423-1.418v-5.673c0-.81-.66-1.47-1.422-1.47ZM25.232 3.95c1.066-.152 2.489.658 2.641 1.62.203 1.368-1.676 2.634-2.54 3.192-1.27.86-2.489 1.316-3.657 2.026.407-1.874 1.27-6.534 3.556-6.838Zm-11.48 4.964c-1.117-.76-3.25-2.23-3.2-3.9.051-1.824 2.896-3.293 4.42-1.925 1.93 1.671 2.844 5.571 3.555 8.306-1.625-.81-3.15-1.418-4.775-2.481ZM16.75 37.48H7.048V20.767h9.701V37.48Zm0-18.234H5.524v-5.52h11.225v5.52Zm5.08 18.235h-3.607V13.724h3.607V37.48Zm11.174 0h-9.65V20.765h9.701V37.48h-.05Zm1.473-18.235H23.352v-5.52h11.124v5.52Z" fill="#81B3D2"/>
  </symbol>
  <symbol viewBox="0 0 40 40" id="house">
    <path d="M15.402 35.22h8.353V23.06h-8.353V35.22Zm6.839-1.476h-5.325v-9.207h5.273v9.207h.052Z" fill="#81B3D2"/>
    <path d="M37.904 22.043 39 20.975l-5.169-5.036V2.203h-7.205v6.715L19.474 2 0 21.026l1.096 1.068 4.073-3.968v19.23H3.133v1.474h33.361v-1.475h-2.663v-19.28l4.073 3.968ZM28.14 3.73h4.124v10.733l-4.124-4.018V3.73Zm4.176 33.574H6.735V16.6L19.474 4.137 32.265 16.6v20.704h.052Z" fill="#81B3D2"/>
    <path d="M15.558 15.837c0 2.187 1.828 3.968 4.02 3.968 2.245 0 4.073-1.78 4.073-3.968 0-2.188-1.828-3.917-4.073-3.917s-4.02 1.73-4.02 3.917Zm4.02-2.544c1.41 0 2.61 1.12 2.61 2.544 0 1.373-1.148 2.543-2.61 2.543-1.41 0-2.61-1.119-2.61-2.543 0-1.374 1.2-2.544 2.61-2.544ZM10.39 23.061H8.822v1.984h1.566v-1.984ZM13.47 23.061h-1.566v1.984h1.566v-1.984ZM10.39 26.113H8.822v1.984h1.566v-1.984ZM13.47 26.113h-1.566v1.984h1.566v-1.984ZM27.044 23.061h-1.566v1.984h1.566v-1.984ZM30.177 23.061H28.61v1.984h1.566v-1.984ZM27.044 26.113h-1.566v1.984h1.566v-1.984ZM30.177 26.113H28.61v1.984h1.566v-1.984Z" fill="#81B3D2"/>
  </symbol>
  <symbol viewBox="0 0 48 55" id="play">
    <path d="m48 27.02-48 27v-54l48 27Z" fill="#fff"/>
  </symbol>
</svg>
